<svg height="64" viewBox="0 0 64 64" width="64" xmlns="http://www.w3.org/2000/svg"><g fill="none" fill-rule="evenodd"><path d="m30 48v7m3-7v7" stroke="#979797" stroke-linecap="square" stroke-width="2"/><path d="m21.867 20.073 42.58 17.467-31.281.514z" fill="#b4dffb"/><path d="m6.01141571 24.9592921c0 12.7025493 10.29745079 23 22.99999999 23 12.7025493 0 23-10.2974507 23-23z" fill="#5ea7ff" transform="matrix(.8660254 .5 -.5 .8660254 22.116737 -9.620786)"/><path d="m17.0111617 27.9591651c0 8.2844116 6.7158425 15.0002541 15.000254 15.0002541 8.2844116 0 15.0002541-6.7158425 15.0002541-15.0002541z" fill="#b4dffb" transform="matrix(.8660254 .5 -.5 .8660254 22.018661 -11.254761)"/><path d="m4.964 17.928-3.648 1.086 4.549 2.162" fill="#e43535"/><circle cx="12" cy="19" fill="#b4dffb" r="7"/><circle cx="9" cy="18" fill="#595959" r="2"/></g></svg>