<svg viewBox="0 0 400 300" xmlns="http://www.w3.org/2000/svg"><g fill="#dfeaef"><path d="m144.38 95.89a1 1 0 0 1 -.58-.19l-11.8-8.56a1 1 0 0 1 1.18-1.62l11.82 8.56a1 1 0 0 1 .23 1.39 1 1 0 0 1 -.85.42z"/><path d="m129.18 169.91a1 1 0 0 1 -.79-.38 1 1 0 0 1 .17-1.4l11.83-9.27a1 1 0 0 1 1.23 1.57l-11.82 9.27a1 1 0 0 1 -.62.21z"/><path d="m144.39 123.63h-19.15a1 1 0 0 1 0-2h19.15a1 1 0 0 1 0 2z"/><path d="m269 95.89a1 1 0 0 1 -.59-1.81l11.83-8.56a1 1 0 1 1 1.17 1.62l-11.79 8.56a1 1 0 0 1 -.62.19z"/><path d="m284.23 169.91a1 1 0 0 1 -.61-.21l-11.83-9.27a1 1 0 1 1 1.24-1.57l11.82 9.27a1 1 0 0 1 .17 1.4 1 1 0 0 1 -.79.38z"/><path d="m288.18 123.63h-19.18a1 1 0 0 1 0-2h19.15a1 1 0 0 1 0 2z"/></g><path d="m183 114s-19.26 5.46-20.54 9.5c0 0-7.84 9.91-9.4 22.27-.76 6 1.38 19.14 4.32 24.89 6 11.72 11.85 22.58 11.85 22.58l-3.7 17.37 55.08 14.25 6-23.7s11.51-7 15.62-17.15 2.26-69.19-4.11-76.8-55.12 6.79-55.12 6.79z" fill="#ffc9b0"/><path d="m220.59 225.86a1 1 0 0 1 -.25 0l-55.08-14.25a1 1 0 0 1 -.73-1.18l3.62-17c-1-1.9-6.33-11.8-11.68-22.27-2.92-5.71-5.23-19-4.42-25.47 1.5-11.89 8.54-21.39 9.51-22.65 1.78-4.28 17.88-9 21.14-10 5.08-1.5 49.54-14.35 56.14-6.47 6.44 7.69 8.57 67.16 4.27 77.81-3.83 9.49-13.65 16.12-15.68 17.41l-5.87 23.32a1 1 0 0 1 -.46.61 1.06 1.06 0 0 1 -.51.14zm-53.91-16 53.18 13.76 5.73-22.73a1 1 0 0 1 .45-.61c.11-.07 11.28-6.92 15.21-16.67 4.05-10 2.05-68.62-3.95-75.78-1.34-1.6-6.89-3.62-29 .88-12.79 2.61-25 6.19-25.09 6.23-7.78 2.21-19.08 6.41-19.85 8.84a1.41 1.41 0 0 1 -.17.32c-.08.09-7.69 9.85-9.2 21.78-.76 6 1.49 19 4.22 24.31 5.91 11.57 11.78 22.44 11.84 22.55a1 1 0 0 1 .09.69z" fill="#093f68"/><rect fill="#fff" height="137.08" rx="7.83" width="77.97" x="170.29" y="56.15"/><path d="m240.43 194.24h-62.31a8.85 8.85 0 0 1 -8.83-8.84v-121.4a8.85 8.85 0 0 1 8.83-8.84h62.31a8.85 8.85 0 0 1 8.83 8.84v121.4a8.85 8.85 0 0 1 -8.83 8.84zm-62.31-137.09a6.85 6.85 0 0 0 -6.83 6.85v121.4a6.85 6.85 0 0 0 6.83 6.84h62.31a6.84 6.84 0 0 0 6.83-6.84v-121.4a6.84 6.84 0 0 0 -6.83-6.84z" fill="#093f68"/><rect fill="#68e1fd" height="104.46" rx="4.1" width="68.79" x="174.88" y="71.27"/><path d="m239.58 176.73h-60.58a5.11 5.11 0 0 1 -5.1-5.1v-96.27a5.1 5.1 0 0 1 5.1-5.09h60.6a5.09 5.09 0 0 1 5.09 5.09v96.27a5.1 5.1 0 0 1 -5.11 5.1zm-60.58-104.46a3.09 3.09 0 0 0 -3.1 3.09v96.27a3.1 3.1 0 0 0 3.1 3.1h60.6a3.1 3.1 0 0 0 3.09-3.1v-96.27a3.09 3.09 0 0 0 -3.09-3.09z" fill="#093f68"/><circle cx="196.82" cy="64.49" fill="#093f68" r="1.26"/><path d="m223 65.49h-20.16a1 1 0 0 1 0-2h20.16a1 1 0 1 1 0 2z" fill="#093f68"/><circle cx="209.28" cy="184.01" fill="#fff" r="4.44"/><path d="m209.28 189.45a5.45 5.45 0 1 1 5.44-5.44 5.45 5.45 0 0 1 -5.44 5.44zm0-8.89a3.45 3.45 0 1 0 3.44 3.45 3.46 3.46 0 0 0 -3.44-3.45z" fill="#dfeaef"/><rect fill="#ffc9b0" height="13.36" rx="5.09" width="22.41" x="234.23" y="109.27"/><path d="m251.54 123.63h-12.22a6.09 6.09 0 0 1 -6.09-6.09v-3.18a6.09 6.09 0 0 1 6.09-6.09h12.22a6.1 6.1 0 0 1 6.1 6.09v3.18a6.1 6.1 0 0 1 -6.1 6.09zm-12.22-13.36a4.09 4.09 0 0 0 -4.09 4.09v3.18a4.1 4.1 0 0 0 4.09 4.09h12.22a4.1 4.1 0 0 0 4.1-4.09v-3.18a4.1 4.1 0 0 0 -4.1-4.09z" fill="#093f68"/><rect fill="#ffc9b0" height="13.36" rx="5.46" width="25.73" x="234.23" y="124.7"/><path d="m254.51 139.06h-14.82a6.47 6.47 0 0 1 -6.46-6.46v-2.45a6.46 6.46 0 0 1 6.46-6.45h14.82a6.45 6.45 0 0 1 6.45 6.45v2.45a6.46 6.46 0 0 1 -6.45 6.46zm-14.82-13.36a4.46 4.46 0 0 0 -4.46 4.45v2.45a4.46 4.46 0 0 0 4.46 4.46h14.82a4.46 4.46 0 0 0 4.49-4.46v-2.45a4.46 4.46 0 0 0 -4.45-4.45z" fill="#093f68"/><rect fill="#ffc9b0" height="13.36" rx="5.46" width="25.73" x="234.23" y="140.12"/><path d="m254.51 154.49h-14.82a6.47 6.47 0 0 1 -6.46-6.46v-2.45a6.47 6.47 0 0 1 6.46-6.46h14.82a6.46 6.46 0 0 1 6.45 6.46v2.42a6.46 6.46 0 0 1 -6.45 6.49zm-14.82-13.37a4.46 4.46 0 0 0 -4.46 4.46v2.42a4.46 4.46 0 0 0 4.46 4.46h14.82a4.46 4.46 0 0 0 4.49-4.46v-2.45a4.46 4.46 0 0 0 -4.45-4.46z" fill="#093f68"/><rect fill="#ffc9b0" height="13.36" rx="5.09" width="22.41" x="234.23" y="155.55"/><path d="m251.54 169.91h-12.22a6.09 6.09 0 0 1 -6.09-6.09v-3.18a6.09 6.09 0 0 1 6.09-6.09h12.22a6.1 6.1 0 0 1 6.1 6.09v3.18a6.1 6.1 0 0 1 -6.1 6.09zm-12.22-13.36a4.1 4.1 0 0 0 -4.09 4.09v3.18a4.09 4.09 0 0 0 4.09 4.09h12.22a4.1 4.1 0 0 0 4.1-4.09v-3.18a4.1 4.1 0 0 0 -4.1-4.09z" fill="#093f68"/><path d="m165.53 148.38s19.07-24.08 22.82-34.14c2.12-5.71-4.56-9.43-6.63-9.25-7.23.65-18.38 17.25-18.38 17.25" fill="#ffc9b0"/><path d="m165.53 149.38a1 1 0 0 1 -.79-1.62c.19-.24 19-24.07 22.67-33.87a4.91 4.91 0 0 0 -.79-5c-1.49-2-4-3-4.81-2.94-5.54.5-14.61 12.3-17.64 16.81a1 1 0 0 1 -1.38.27 1 1 0 0 1 -.28-1.39c.47-.69 11.5-17 19.12-17.68 1.64-.15 4.77 1.34 6.58 3.71a6.87 6.87 0 0 1 1.07 6.87c-3.75 10.1-22.19 33.44-23 34.42a1 1 0 0 1 -.75.42z" fill="#093f68"/><path d="m225.38 226.43-67.31-14.65 3.63-13.03 66.56 13.89z" fill="#fff"/><path d="m225.38 227.43a.75.75 0 0 1 -.21 0l-67.31-14.66a.94.94 0 0 1 -.64-.46 1 1 0 0 1 -.11-.78l3.63-13a1 1 0 0 1 1.17-.71l66.56 13.89a1 1 0 0 1 .63.43 1 1 0 0 1 .14.75l-2.88 13.8a1 1 0 0 1 -.43.63 1 1 0 0 1 -.55.11zm-66.06-16.43 65.29 14.22 2.47-11.83-64.66-13.49z" fill="#093f68"/><path d="m230.18 243.84 1.49-17.41-80.24-15.68-11.39 33.09z" fill="#f56132"/><path d="m230.18 244.85h-90.18a1 1 0 0 1 -.82-.42 1 1 0 0 1 -.13-.91l11.39-33.1a1 1 0 0 1 1.14-.65l80.24 15.68a1 1 0 0 1 .81 1.07l-1.5 17.41a1 1 0 0 1 -.95.92zm-88.74-2h87.82l1.34-15.61-78.51-15.34z" fill="#093f68"/><path d="m188.76 131a1 1 0 0 1 -.77-1.65l42.92-50.57a1 1 0 0 1 1.52 1.3l-42.91 50.57a1 1 0 0 1 -.76.35z" fill="#fff"/><path d="m187 165.93a1 1 0 0 1 -.68-.27 1 1 0 0 1 -.06-1.41l39-42.3a1 1 0 0 1 1.47 1.36l-39 42.3a1 1 0 0 1 -.73.32z" fill="#fff"/><path d="m193.17 94.27a1 1 0 0 1 -.69-.28 1 1 0 0 1 0-1.41l13.23-13.88a1 1 0 0 1 1.42 0 1 1 0 0 1 0 1.41l-13.24 13.89a1 1 0 0 1 -.72.27z" fill="#fff"/><circle cx="162.4" cy="226.47" fill="#ffbc0e" r="5.45"/><path d="m162.4 232.92a6.45 6.45 0 1 1 6.44-6.45 6.45 6.45 0 0 1 -6.44 6.45zm0-10.89a4.45 4.45 0 1 0 4.44 4.44 4.44 4.44 0 0 0 -4.44-4.47z" fill="#093f68"/></svg>